2025-12-19T04:23:30.7319308Z ##[group]Run $StreamUrl = python -m yt_dlp -f best -g "https://www.youtube.com/@ThanthiTV/live" --no-warnings
2025-12-19T04:23:30.7320575Z [36;1m$StreamUrl = python -m yt_dlp -f best -g "https://www.youtube.com/@ThanthiTV/live" --no-warnings[0m
2025-12-19T04:23:30.7321175Z [36;1mif ($StreamUrl -match "http") {[0m
2025-12-19T04:23:30.7321797Z [36;1m     ffmpeg -i "$StreamUrl" -vf "fps=0.2,scale=854:480,crop=854:120:0:360" -t 60 -q:v 5 screenshot_%04d.jpg[0m
2025-12-19T04:23:30.7322347Z [36;1m}[0m
2025-12-19T04:23:30.7346755Z shell: C:\Windows\System32\WindowsPowerShell\v1.0\powershell.EXE -command ". '{0}'"
2025-12-19T04:23:30.7347798Z ##[endgroup]
2025-12-19T04:23:36.9427529Z ffmpeg version 8.0.1-full_build-www.gyan.dev Copyright (c) 2000-2025 the FFmpeg developers
2025-12-19T04:23:36.9428137Z   built with gcc 15.2.0 (Rev8, Built by MSYS2 project)
2025-12-19T04:23:36.9432687Z   configuration: --enable-gpl --enable-version3 --enable-static --disable-w32threads --disable-autodetect --enable-fontconfig --enable-iconv --enable-gnutls --enable-lcms2 --enable-libxml2 --enable-gmp --enable-bzlib --enable-lzma --enable-libsnappy --enable-zlib --enable-librist --enable-libsrt --enable-libssh --enable-libzmq --enable-avisynth --enable-libbluray --enable-libcaca --enable-libdvdnav --enable-libdvdread --enable-sdl2 --enable-libaribb24 --enable-libaribcaption --enable-libdav1d --enable-libdavs2 --enable-libopenjpeg --enable-libquirc --enable-libuavs3d --enable-libxevd --enable-libzvbi --enable-liboapv --enable-libqrencode --enable-librav1e --enable-libsvtav1 --enable-libvvenc --enable-libwebp --enable-libx264 --enable-libx265 --enable-libxavs2 --enable-libxeve --enable-libxvid --enable-libaom --enable-libjxl --enable-libvpx --enable-mediafoundation --enable-libass --enable-frei0r --enable-libfreetype --enable-libfribidi --enable-libharfbuzz --enable-liblensfun --enable-libvidstab --enable-libvmaf --enable-libzimg --enable-amf --enable-cuda-llvm --enable-cuvid --enable-dxva2 --enable-d3d11va --enable-d3d12va --enable-ffnvcodec --enable-libvpl --enable-nvdec --enable-nvenc --enable-vaapi --enable-libshaderc --enable-vulkan --enable-libplacebo --enable-opencl --enable-libcdio --enable-openal --enable-libgme --enable-libmodplug --enable-libopenmpt --enable-libopencore-amrwb --enable-libmp3lame --enable-libshine --enable-libtheora --enable-libtwolame --enable-libvo-amrwbenc --enable-libcodec2 --enable-libilbc --enable-libgsm --enable-liblc3 --enable-libopencore-amrnb --enable-libopus --enable-libspeex --enable-libvorbis --enable-ladspa --enable-libbs2b --enable-libflite --enable-libmysofa --enable-librubberband --enable-libsoxr --enable-chromaprint --enable-whisper
2025-12-19T04:23:36.9437529Z   libavutil      60.  8.100 / 60.  8.100
2025-12-19T04:23:36.9437747Z   libavcodec     62. 11.100 / 62. 11.100
2025-12-19T04:23:36.9438061Z   libavformat    62.  3.100 / 62.  3.100
2025-12-19T04:23:36.9438280Z   libavdevice    62.  1.100 / 62.  1.100
2025-12-19T04:23:36.9438503Z   libavfilter    11.  4.100 / 11.  4.100
2025-12-19T04:23:36.9438707Z   libswscale      9.  1.100 /  9.  1.100
2025-12-19T04:23:36.9438938Z   libswresample   6.  1.100 /  6.  1.100
2025-12-19T04:23:37.6851892Z [hls @ 0000024ed9a07180] Opening 'https://rr6---sn-ci5gup-jwc6.googlevideo.com/videoplayback/id/WhY5UIDpM4c.1/itag/301/source/yt_live_broadcast/expire/1766139813/ei/RdNEaf6cJtWW4-EPrezvmQk/ip/2401:4900:64f2:5a81:94a4:a294:1f3e:3361/requiressl/yes/ratebypass/yes/live/1/sgoap/gir%3Dyes%3Bitag%3D140/sgovp/gir%3Dyes%3Bitag%3D299/rqh/1/hls_chunk_host/rr6---sn-ci5gup-jwc6.googlevideo.com/xpc/EgVo2aDSNQ%3D%3D/playlist_duration/30/manifest_duration/30/bui/AYUSA3BB1yQoraoFQHoqibeCsyLZf-BGMRX6KTzID-Idi0pl-2mJEu2F3i867mny6hZM3m3uq7QMLcVi/spc/wH4QqxsjCbcdg65Nd4EZ/vprv/1/playlist_type/DVR/cps/458/initcwndbps/583750/met/1766118215,/mh/rV/mm/44/mn/sn-ci5gup-jwc6/ms/lva/mv/m/mvi/6/pl/44/rms/lva,lva/keepalive/yes/fexp/51552689,51565116,51565681,51580968/mt/1766117792/sparams/expire,ei,ip,id,itag,source,requiressl,ratebypass,live,sgoap,sgovp,rqh,xpc,playlist_duration,manifest_duration,bui,spc,vprv,playlist_type/sig/AJfQdSswRgIhAIZw76Fi_9DB7v5DXaqHfzNxQvUav5atoOrhPyyLkXrkAiEAggXp7rlK99tHreScCLN9_Q0_tF_QWWidtLmoNwdnmN4%3D/lsparams/hls_chunk_host,cps,initcwndbps,met,mh,mm,mn,ms,mv,mvi,pl,rms/lsig/APaTxxMwRgIhAIJdzKicz1JT2chl_Z6eMm5YVekuKIz1N22p0h4LGIqIAiEAgK_n6W75shs1AiBYvXoYbstiFaV_U-un-4I5D-yY7jg%3D/playlist/index.m3u8/sq/180/goap/lmt%3D1/govp/lmt%3D1/dur/5.000/file/seg.ts' for reading
2025-12-19T04:23:38.4223685Z     Last message repeated 1 times
2025-12-19T04:23:38.4228135Z Input #0, hls, from 'https://manifest.googlevideo.com/api/manifest/hls_playlist/expire/1766139813/ei/RdNEaf6cJtWW4-EPrezvmQk/ip/2401:4900:64f2:5a81:94a4:a294:1f3e:3361/id/WhY5UIDpM4c.1/itag/301/source/yt_live_broadcast/requiressl/yes/ratebypass/yes/live/1/sgoap/gir%3Dyes%3Bitag%3D140/sgovp/gir%3Dyes%3Bitag%3D299/rqh/1/hls_chunk_host/rr6---sn-ci5gup-jwc6.googlevideo.com/xpc/EgVo2aDSNQ%3D%3D/playlist_duration/30/manifest_duration/30/bui/AYUSA3BB1yQoraoFQHoqibeCsyLZf-BGMRX6KTzID-Idi0pl-2mJEu2F3i867mny6hZM3m3uq7QMLcVi/spc/wH4QqxsjCbcdg65Nd4EZ/vprv/1/playlist_type/DVR/cps/458/initcwndbps/583750/met/1766118215,/mh/rV/mm/44/mn/sn-ci5gup-jwc6/ms/lva/mv/m/mvi/6/pl/44/rms/lva,lva/dover/11/pacing/0/keepalive/yes/fexp/51552689,51565116,51565681,51580968/mt/1766117792/sparams/expire,ei,ip,id,itag,source,requiressl,ratebypass,live,sgoap,sgovp,rqh,xpc,playlist_duration,manifest_duration,bui,spc,vprv,playlist_type/sig/AJfQdSswRgIhAIZw76Fi_9DB7v5DXaqHfzNxQvUav5atoOrhPyyLkXrkAiEAggXp7rlK99tHreScCLN9_Q0_tF_QWWidtLmoNwdnmN4%3D/lsparams/hls_chunk_host,cps,initcwndbps,met,mh,mm,mn,ms,mv,mvi,pl,rms/lsig/APaTxxMwRgIhAIJdzKicz1JT2chl_Z6eMm5YVekuKIz1N22p0h4LGIqIAiEAgK_n6W75shs1AiBYvXoYbstiFaV_U-un-4I5D-yY7jg%3D/playlist/index.m3u8':
2025-12-19T04:23:38.4231827Z   Duration: N/A, start: 900.000000, bitrate: N/A
2025-12-19T04:23:38.4232085Z   Program 0 
2025-12-19T04:23:38.4232308Z     Metadata:
2025-12-19T04:23:38.4232486Z       variant_bitrate : 0
2025-12-19T04:23:38.4232780Z   Stream #0:0: Audio: aac (LC) ([15][0][0][0] / 0x000F), 44100 Hz, stereo, fltp, start 900.005433
2025-12-19T04:23:38.4233183Z     Metadata:
2025-12-19T04:23:38.4233340Z       variant_bitrate : 0
2025-12-19T04:23:38.4233721Z   Stream #0:1: Video: h264 (High) ([27][0][0][0] / 0x001B), yuv420p(tv, bt709), 1920x1080 [SAR 1:1 DAR 16:9], 60 fps, 60 tbr, 90k tbn, start 900.000000
2025-12-19T04:23:38.4234096Z     Metadata:
2025-12-19T04:23:38.4234261Z       variant_bitrate : 0
2025-12-19T04:23:38.4252451Z Stream mapping:
2025-12-19T04:23:38.4253270Z   Stream #0:1 -> #0:0 (h264 (native) -> mjpeg (native))
2025-12-19T04:23:38.4253577Z Press [q] to stop, [?] for help
2025-12-19T04:23:38.5800417Z Output #0, image2, to 'screenshot_%04d.jpg':
2025-12-19T04:23:38.5814217Z   Metadata:
2025-12-19T04:23:38.5816001Z     encoder         : Lavf62.3.100
2025-12-19T04:23:38.5838157Z   Stream #0:0: Video: mjpeg, yuv420p(pc, bt709, progressive), 854x120 [SAR 1280:1281 DAR 64:9], q=2-31, 200 kb/s, 0.20 fps, 0.20 tbn
2025-12-19T04:23:38.5922705Z     Metadata:
2025-12-19T04:23:38.5989666Z       encoder         : Lavc62.11.100 mjpeg
2025-12-19T04:23:38.5995395Z       variant_bitrate : 0
2025-12-19T04:23:38.5995987Z     Side data:
2025-12-19T04:23:38.5998517Z       cpb: bitrate max/min/avg: 0/0/200000 buffer size: 0 vbv_delay: N/A
2025-12-19T04:23:38.6698344Z [https @ 0000024eda02a200] Opening 'https://rr6---sn-ci5gup-jwc6.googlevideo.com/videoplayback/id/WhY5UIDpM4c.1/itag/301/source/yt_live_broadcast/expire/1766139813/ei/RdNEaf6cJtWW4-EPrezvmQk/ip/2401:4900:64f2:5a81:94a4:a294:1f3e:3361/requiressl/yes/ratebypass/yes/live/1/sgoap/gir%3Dyes%3Bitag%3D140/sgovp/gir%3Dyes%3Bitag%3D299/rqh/1/hls_chunk_host/rr6---sn-ci5gup-jwc6.googlevideo.com/xpc/EgVo2aDSNQ%3D%3D/playlist_duration/30/manifest_duration/30/bui/AYUSA3BB1yQoraoFQHoqibeCsyLZf-BGMRX6KTzID-Idi0pl-2mJEu2F3i867mny6hZM3m3uq7QMLcVi/spc/wH4QqxsjCbcdg65Nd4EZ/vprv/1/playlist_type/DVR/cps/458/initcwndbps/583750/met/1766118215,/mh/rV/mm/44/mn/sn-ci5gup-jwc6/ms/lva/mv/m/mvi/6/pl/44/rms/lva,lva/keepalive/yes/fexp/51552689,51565116,51565681,51580968/mt/1766117792/sparams/expire,ei,ip,id,itag,source,requiressl,ratebypass,live,sgoap,sgovp,rqh,xpc,playlist_duration,manifest_duration,bui,spc,vprv,playlist_type/sig/AJfQdSswRgIhAIZw76Fi_9DB7v5DXaqHfzNxQvUav5atoOrhPyyLkXrkAiEAggXp7rlK99tHreScCLN9_Q0_tF_QWWidtLmoNwdnmN4%3D/lsparams/hls_chunk_host,cps,initcwndbps,met,mh,mm,mn,ms,mv,mvi,pl,rms/lsig/APaTxxMwRgIhAIJdzKicz1JT2chl_Z6eMm5YVekuKIz1N22p0h4LGIqIAiEAgK_n6W75shs1AiBYvXoYbstiFaV_U-un-4I5D-yY7jg%3D/playlist/index.m3u8/sq/182/goap/lmt%3D1/govp/lmt%3D1/dur/5.000/file/seg.ts' for reading
2025-12-19T04:23:39.4720780Z frame=    0 fps=0.0 q=0.0 size=       0KiB time=N/A bitrate=N/A speed=N/A elapsed=0:00:00.52    
2025-12-19T04:23:39.9803713Z frame=    2 fps=1.9 q=5.0 size=N/A time=00:00:10.00 bitrate=N/A speed=9.56x elapsed=0:00:01.04    
2025-12-19T04:23:40.5054510Z frame=    2 fps=1.3 q=5.0 size=N/A time=00:00:10.00 bitrate=N/A speed=6.43x elapsed=0:00:01.55    
2025-12-19T04:23:41.0116095Z frame=    2 fps=1.0 q=5.0 size=N/A time=00:00:10.00 bitrate=N/A speed=4.81x elapsed=0:00:02.07    
2025-12-19T04:23:41.5273103Z frame=    2 fps=0.8 q=5.0 size=N/A time=00:00:10.00 bitrate=N/A speed=3.87x elapsed=0:00:02.58    
2025-12-19T04:23:42.0533201Z frame=    2 fps=0.6 q=5.0 size=N/A time=00:00:10.00 bitrate=N/A speed=3.22x elapsed=0:00:03.10    
2025-12-19T04:23:42.5729608Z frame=    2 fps=0.6 q=5.0 size=N/A time=00:00:10.00 bitrate=N/A speed=2.76x elapsed=0:00:03.62    
2025-12-19T04:23:43.1015303Z frame=    2 fps=0.5 q=5.0 size=N/A time=00:00:10.00 bitrate=N/A speed=2.41x elapsed=0:00:04.14    
2025-12-19T04:23:43.5536980Z frame=    2 fps=0.4 q=5.0 size=N/A time=00:00:10.00 bitrate=N/A speed=2.14x elapsed=0:00:04.67    
2025-12-19T04:23:43.5543959Z [https @ 0000024eda02a200] Opening 'https://rr6---sn-ci5gup-jwc6.googlevideo.com/videoplayback/id/WhY5UIDpM4c.1/itag/301/source/yt_live_broadcast/expire/1766139813/ei/RdNEaf6cJtWW4-EPrezvmQk/ip/2401:4900:64f2:5a81:94a4:a294:1f3e:3361/requiressl/yes/ratebypass/yes/live/1/sgoap/gir%3Dyes%3Bitag%3D140/sgovp/gir%3Dyes%3Bitag%3D299/rqh/1/hls_chunk_host/rr6---sn-ci5gup-jwc6.googlevideo.com/xpc/EgVo2aDSNQ%3D%3D/playlist_duration/30/manifest_duration/30/bui/AYUSA3BB1yQoraoFQHoqibeCsyLZf-BGMRX6KTzID-Idi0pl-2mJEu2F3i867mny6hZM3m3uq7QMLcVi/spc/wH4QqxsjCbcdg65Nd4EZ/vprv/1/playlist_type/DVR/cps/458/initcwndbps/583750/met/1766118215,/mh/rV/mm/44/mn/sn-ci5gup-jwc6/ms/lva/mv/m/mvi/6/pl/44/rms/lva,lva/keepalive/yes/fexp/51552689,51565116,51565681,51580968/mt/1766117792/sparams/expire,ei,ip,id,itag,source,requiressl,ratebypass,live,sgoap,sgovp,rqh,xpc,playlist_duration,manifest_duration,bui,spc,vprv,playlist_type/sig/AJfQdSswRgIhAIZw76Fi_9DB7v5DXaqHfzNxQvUav5atoOrhPyyLkXrkAiEAggXp7rlK99tHreScCLN9_Q0_tF_QWWidtLmoNwdnmN4%3D/lsparams/hls_chunk_host,cps,initcwndbps,met,mh,mm,mn,ms,mv,mvi,pl,rms/lsig/APaTxxMwRgIhAIJdzKicz1JT2chl_Z6eMm5YVekuKIz1N22p0h4LGIqIAiEAgK_n6W75shs1AiBYvXoYbstiFaV_U-un-4I5D-yY7jg%3D/playlist/index.m3u8/sq/183/goap/lmt%3D1/govp/lmt%3D1/dur/5.000/file/seg.ts' for reading
2025-12-19T04:23:44.1315372Z frame=    2 fps=0.4 q=5.0 size=N/A time=00:00:10.00 bitrate=N/A speed=1.93x elapsed=0:00:05.19    
2025-12-19T04:23:44.6399215Z frame=    2 fps=0.4 q=5.0 size=N/A time=00:00:10.00 bitrate=N/A speed=1.75x elapsed=0:00:05.70    
2025-12-19T04:23:45.1641900Z frame=    3 fps=0.5 q=5.0 size=N/A time=00:00:15.00 bitrate=N/A speed=2.41x elapsed=0:00:06.21    
2025-12-19T04:23:45.6671627Z frame=    3 fps=0.4 q=5.0 size=N/A time=00:00:15.00 bitrate=N/A speed=2.23x elapsed=0:00:06.73    
2025-12-19T04:23:46.1864369Z frame=    3 fps=0.4 q=5.0 size=N/A time=00:00:15.00 bitrate=N/A speed=2.07x elapsed=0:00:07.24    
2025-12-19T04:23:46.7072324Z frame=    3 fps=0.4 q=5.0 size=N/A time=00:00:15.00 bitrate=N/A speed=1.93x elapsed=0:00:07.76    
2025-12-19T04:23:47.2227822Z frame=    3 fps=0.4 q=5.0 size=N/A time=00:00:15.00 bitrate=N/A speed=1.81x elapsed=0:00:08.28    
2025-12-19T04:23:47.7311940Z frame=    3 fps=0.3 q=5.0 size=N/A time=00:00:15.00 bitrate=N/A speed=1.71x elapsed=0:00:08.79    
2025-12-19T04:23:48.2536242Z frame=    3 fps=0.3 q=5.0 size=N/A time=00:00:15.00 bitrate=N/A speed=1.61x elapsed=0:00:09.30    
2025-12-19T04:23:48.5750796Z frame=    3 fps=0.3 q=5.0 size=N/A time=00:00:15.00 bitrate=N/A speed=1.53x elapsed=0:00:09.82    
2025-12-19T04:23:48.5756359Z [https @ 0000024edcfd4380] Opening 'https://manifest.googlevideo.com/api/manifest/hls_playlist/expire/1766139813/ei/RdNEaf6cJtWW4-EPrezvmQk/ip/2401:4900:64f2:5a81:94a4:a294:1f3e:3361/id/WhY5UIDpM4c.1/itag/301/source/yt_live_broadcast/requiressl/yes/ratebypass/yes/live/1/sgoap/gir%3Dyes%3Bitag%3D140/sgovp/gir%3Dyes%3Bitag%3D299/rqh/1/hls_chunk_host/rr6---sn-ci5gup-jwc6.googlevideo.com/xpc/EgVo2aDSNQ%3D%3D/playlist_duration/30/manifest_duration/30/bui/AYUSA3BB1yQoraoFQHoqibeCsyLZf-BGMRX6KTzID-Idi0pl-2mJEu2F3i867mny6hZM3m3uq7QMLcVi/spc/wH4QqxsjCbcdg65Nd4EZ/vprv/1/playlist_type/DVR/cps/458/initcwndbps/583750/met/1766118215,/mh/rV/mm/44/mn/sn-ci5gup-jwc6/ms/lva/mv/m/mvi/6/pl/44/rms/lva,lva/dover/11/pacing/0/keepalive/yes/fexp/51552689,51565116,51565681,51580968/mt/1766117792/sparams/expire,ei,ip,id,itag,source,requiressl,ratebypass,live,sgoap,sgovp,rqh,xpc,playlist_duration,manifest_duration,bui,spc,vprv,playlist_type/sig/AJfQdSswRgIhAIZw76Fi_9DB7v5DXaqHfzNxQvUav5atoOrhPyyLkXrkAiEAggXp7rlK99tHreScCLN9_Q0_tF_QWWidtLmoNwdnmN4%3D/lsparams/hls_chunk_host,cps,initcwndbps,met,mh,mm,mn,ms,mv,mvi,pl,rms/lsig/APaTxxMwRgIhAIJdzKicz1JT2chl_Z6eMm5YVekuKIz1N22p0h4LGIqIAiEAgK_n6W75shs1AiBYvXoYbstiFaV_U-un-4I5D-yY7jg%3D/playlist/index.m3u8' for reading
2025-12-19T04:23:48.7895641Z frame=    3 fps=0.3 q=5.0 size=N/A time=00:00:15.00 bitrate=N/A speed=1.45x elapsed=0:00:10.34    
2025-12-19T04:23:48.7901953Z [https @ 0000024eda02a200] Opening 'https://rr6---sn-ci5gup-jwc6.googlevideo.com/videoplayback/id/WhY5UIDpM4c.1/itag/301/source/yt_live_broadcast/expire/1766139813/ei/RdNEaf6cJtWW4-EPrezvmQk/ip/2401:4900:64f2:5a81:94a4:a294:1f3e:3361/requiressl/yes/ratebypass/yes/live/1/sgoap/gir%3Dyes%3Bitag%3D140/sgovp/gir%3Dyes%3Bitag%3D299/rqh/1/hls_chunk_host/rr6---sn-ci5gup-jwc6.googlevideo.com/xpc/EgVo2aDSNQ%3D%3D/playlist_duration/30/manifest_duration/30/bui/AYUSA3BB1yQoraoFQHoqibeCsyLZf-BGMRX6KTzID-Idi0pl-2mJEu2F3i867mny6hZM3m3uq7QMLcVi/spc/wH4QqxsjCbcdg65Nd4EZ/vprv/1/playlist_type/DVR/cps/458/initcwndbps/583750/met/1766118215,/mh/rV/mm/44/mn/sn-ci5gup-jwc6/ms/lva/mv/m/mvi/6/pl/44/rms/lva,lva/keepalive/yes/fexp/51552689,51565116,51565681,51580968/mt/1766117792/sparams/expire,ei,ip,id,itag,source,requiressl,ratebypass,live,sgoap,sgovp,rqh,xpc,playlist_duration,manifest_duration,bui,spc,vprv,playlist_type/sig/AJfQdSswRgIhAIZw76Fi_9DB7v5DXaqHfzNxQvUav5atoOrhPyyLkXrkAiEAggXp7rlK99tHreScCLN9_Q0_tF_QWWidtLmoNwdnmN4%3D/lsparams/hls_chunk_host,cps,initcwndbps,met,mh,mm,mn,ms,mv,mvi,pl,rms/lsig/APaTxxMwRgIhAIJdzKicz1JT2chl_Z6eMm5YVekuKIz1N22p0h4LGIqIAiEAgK_n6W75shs1AiBYvXoYbstiFaV_U-un-4I5D-yY7jg%3D/playlist/index.m3u8/sq/184/goap/lmt%3D1/govp/lmt%3D1/dur/5.000/file/seg.ts' for reading
2025-12-19T04:23:49.7985477Z frame=    3 fps=0.3 q=5.0 size=N/A time=00:00:15.00 bitrate=N/A speed=1.38x elapsed=0:00:10.86    
2025-12-19T04:23:50.3112816Z frame=    4 fps=0.4 q=5.0 size=N/A time=00:00:20.00 bitrate=N/A speed=1.76x elapsed=0:00:11.37    
2025-12-19T04:23:50.8269240Z frame=    4 fps=0.3 q=5.0 size=N/A time=00:00:20.00 bitrate=N/A speed=1.68x elapsed=0:00:11.88    
2025-12-19T04:23:51.3417808Z frame=    4 fps=0.3 q=5.0 size=N/A time=00:00:20.00 bitrate=N/A speed=1.61x elapsed=0:00:12.40    
2025-12-19T04:23:51.8650185Z frame=    4 fps=0.3 q=5.0 size=N/A time=00:00:20.00 bitrate=N/A speed=1.55x elapsed=0:00:12.91    
2025-12-19T04:23:52.3798189Z frame=    4 fps=0.3 q=5.0 size=N/A time=00:00:20.00 bitrate=N/A speed=1.49x elapsed=0:00:13.43    
2025-12-19T04:23:52.8915497Z frame=    4 fps=0.3 q=5.0 size=N/A time=00:00:20.00 bitrate=N/A speed=1.43x elapsed=0:00:13.95    
2025-12-19T04:23:53.4064728Z frame=    4 fps=0.3 q=5.0 size=N/A time=00:00:20.00 bitrate=N/A speed=1.38x elapsed=0:00:14.46    
2025-12-19T04:23:53.8850032Z frame=    4 fps=0.3 q=5.0 size=N/A time=00:00:20.00 bitrate=N/A speed=1.34x elapsed=0:00:14.98    
2025-12-19T04:23:53.8857306Z [https @ 0000024edcfd4380] Opening 'https://manifest.googlevideo.com/api/manifest/hls_playlist/expire/1766139813/ei/RdNEaf6cJtWW4-EPrezvmQk/ip/2401:4900:64f2:5a81:94a4:a294:1f3e:3361/id/WhY5UIDpM4c.1/itag/301/source/yt_live_broadcast/requiressl/yes/ratebypass/yes/live/1/sgoap/gir%3Dyes%3Bitag%3D140/sgovp/gir%3Dyes%3Bitag%3D299/rqh/1/hls_chunk_host/rr6---sn-ci5gup-jwc6.googlevideo.com/xpc/EgVo2aDSNQ%3D%3D/playlist_duration/30/manifest_duration/30/bui/AYUSA3BB1yQoraoFQHoqibeCsyLZf-BGMRX6KTzID-Idi0pl-2mJEu2F3i867mny6hZM3m3uq7QMLcVi/spc/wH4QqxsjCbcdg65Nd4EZ/vprv/1/playlist_type/DVR/cps/458/initcwndbps/583750/met/1766118215,/mh/rV/mm/44/mn/sn-ci5gup-jwc6/ms/lva/mv/m/mvi/6/pl/44/rms/lva,lva/dover/11/pacing/0/keepalive/yes/fexp/51552689,51565116,51565681,51580968/mt/1766117792/sparams/expire,ei,ip,id,itag,source,requiressl,ratebypass,live,sgoap,sgovp,rqh,xpc,playlist_duration,manifest_duration,bui,spc,vprv,playlist_type/sig/AJfQdSswRgIhAIZw76Fi_9DB7v5DXaqHfzNxQvUav5atoOrhPyyLkXrkAiEAggXp7rlK99tHreScCLN9_Q0_tF_QWWidtLmoNwdnmN4%3D/lsparams/hls_chunk_host,cps,initcwndbps,met,mh,mm,mn,ms,mv,mvi,pl,rms/lsig/APaTxxMwRgIhAIJdzKicz1JT2chl_Z6eMm5YVekuKIz1N22p0h4LGIqIAiEAgK_n6W75shs1AiBYvXoYbstiFaV_U-un-4I5D-yY7jg%3D/playlist/index.m3u8' for reading
2025-12-19T04:23:54.0966233Z frame=    4 fps=0.3 q=5.0 size=N/A time=00:00:20.00 bitrate=N/A speed=1.29x elapsed=0:00:15.50    
2025-12-19T04:23:54.9688521Z [https @ 0000024eda02a200] Opening 'https://rr6---sn-ci5gup-jwc6.googlevideo.com/videoplayback/id/WhY5UIDpM4c.1/itag/301/source/yt_live_broadcast/expire/1766139813/ei/RdNEaf6cJtWW4-EPrezvmQk/ip/2401:4900:64f2:5a81:94a4:a294:1f3e:3361/requiressl/yes/ratebypass/yes/live/1/sgoap/gir%3Dyes%3Bitag%3D140/sgovp/gir%3Dyes%3Bitag%3D299/rqh/1/hls_chunk_host/rr6---sn-ci5gup-jwc6.googlevideo.com/xpc/EgVo2aDSNQ%3D%3D/playlist_duration/30/manifest_duration/30/bui/AYUSA3BB1yQoraoFQHoqibeCsyLZf-BGMRX6KTzID-Idi0pl-2mJEu2F3i867mny6hZM3m3uq7QMLcVi/spc/wH4QqxsjCbcdg65Nd4EZ/vprv/1/playlist_type/DVR/cps/458/initcwndbps/583750/met/1766118215,/mh/rV/mm/44/mn/sn-ci5gup-jwc6/ms/lva/mv/m/mvi/6/pl/44/rms/lva,lva/keepalive/yes/fexp/51552689,51565116,51565681,51580968/mt/1766117792/sparams/expire,ei,ip,id,itag,source,requiressl,ratebypass,live,sgoap,sgovp,rqh,xpc,playlist_duration,manifest_duration,bui,spc,vprv,playlist_type/sig/AJfQdSswRgIhAIZw76Fi_9DB7v5DXaqHfzNxQvUav5atoOrhPyyLkXrkAiEAggXp7rlK99tHreScCLN9_Q0_tF_QWWidtLmoNwdnmN4%3D/lsparams/hls_chunk_host,cps,initcwndbps,met,mh,mm,mn,ms,mv,mvi,pl,rms/lsig/APaTxxMwRgIhAIJdzKicz1JT2chl_Z6eMm5YVekuKIz1N22p0h4LGIqIAiEAgK_n6W75shs1AiBYvXoYbstiFaV_U-un-4I5D-yY7jg%3D/playlist/index.m3u8/sq/185/goap/lmt%3D1/govp/lmt%3D1/dur/5.000/file/seg.ts' for reading
2025-12-19T04:23:54.9695563Z frame=    4 fps=0.2 q=5.0 size=N/A time=00:00:20.00 bitrate=N/A speed=1.25x elapsed=0:00:16.02    
2025-12-19T04:23:55.4795416Z frame=    5 fps=0.3 q=5.0 size=N/A time=00:00:25.00 bitrate=N/A speed=1.51x elapsed=0:00:16.54    
2025-12-19T04:23:56.0069672Z frame=    5 fps=0.3 q=5.0 size=N/A time=00:00:25.00 bitrate=N/A speed=1.47x elapsed=0:00:17.05    
2025-12-19T04:23:56.5225046Z frame=    5 fps=0.3 q=5.0 size=N/A time=00:00:25.00 bitrate=N/A speed=1.42x elapsed=0:00:17.58    
2025-12-19T04:23:57.0319050Z frame=    5 fps=0.3 q=5.0 size=N/A time=00:00:25.00 bitrate=N/A speed=1.38x elapsed=0:00:18.09    
2025-12-19T04:23:57.5448320Z frame=    5 fps=0.3 q=5.0 size=N/A time=00:00:25.00 bitrate=N/A speed=1.34x elapsed=0:00:18.60    
2025-12-19T04:23:58.0662195Z frame=    5 fps=0.3 q=5.0 size=N/A time=00:00:25.00 bitrate=N/A speed=1.31x elapsed=0:00:19.11    
2025-12-19T04:23:58.5777158Z frame=    5 fps=0.3 q=5.0 size=N/A time=00:00:25.00 bitrate=N/A speed=1.27x elapsed=0:00:19.64    
2025-12-19T04:23:59.0904720Z frame=    5 fps=0.2 q=5.0 size=N/A time=00:00:25.00 bitrate=N/A speed=1.24x elapsed=0:00:20.15    
2025-12-19T04:23:59.1687386Z frame=    5 fps=0.2 q=5.0 size=N/A time=00:00:25.00 bitrate=N/A speed=1.21x elapsed=0:00:20.66    
2025-12-19T04:23:59.1692088Z [https @ 0000024edcfd4380] Opening 'https://manifest.googlevideo.com/api/manifest/hls_playlist/expire/1766139813/ei/RdNEaf6cJtWW4-EPrezvmQk/ip/2401:4900:64f2:5a81:94a4:a294:1f3e:3361/id/WhY5UIDpM4c.1/itag/301/source/yt_live_broadcast/requiressl/yes/ratebypass/yes/live/1/sgoap/gir%3Dyes%3Bitag%3D140/sgovp/gir%3Dyes%3Bitag%3D299/rqh/1/hls_chunk_host/rr6---sn-ci5gup-jwc6.googlevideo.com/xpc/EgVo2aDSNQ%3D%3D/playlist_duration/30/manifest_duration/30/bui/AYUSA3BB1yQoraoFQHoqibeCsyLZf-BGMRX6KTzID-Idi0pl-2mJEu2F3i867mny6hZM3m3uq7QMLcVi/spc/wH4QqxsjCbcdg65Nd4EZ/vprv/1/playlist_type/DVR/cps/458/initcwndbps/583750/met/1766118215,/mh/rV/mm/44/mn/sn-ci5gup-jwc6/ms/lva/mv/m/mvi/6/pl/44/rms/lva,lva/dover/11/pacing/0/keepalive/yes/fexp/51552689,51565116,51565681,51580968/mt/1766117792/sparams/expire,ei,ip,id,itag,source,requiressl,ratebypass,live,sgoap,sgovp,rqh,xpc,playlist_duration,manifest_duration,bui,spc,vprv,playlist_type/sig/AJfQdSswRgIhAIZw76Fi_9DB7v5DXaqHfzNxQvUav5atoOrhPyyLkXrkAiEAggXp7rlK99tHreScCLN9_Q0_tF_QWWidtLmoNwdnmN4%3D/lsparams/hls_chunk_host,cps,initcwndbps,met,mh,mm,mn,ms,mv,mvi,pl,rms/lsig/APaTxxMwRgIhAIJdzKicz1JT2chl_Z6eMm5YVekuKIz1N22p0h4LGIqIAiEAgK_n6W75shs1AiBYvXoYbstiFaV_U-un-4I5D-yY7jg%3D/playlist/index.m3u8' for reading
2025-12-19T04:23:59.3829620Z [https @ 0000024eda02a200] Opening 'https://rr6---sn-ci5gup-jwc6.googlevideo.com/videoplayback/id/WhY5UIDpM4c.1/itag/301/source/yt_live_broadcast/expire/1766139813/ei/RdNEaf6cJtWW4-EPrezvmQk/ip/2401:4900:64f2:5a81:94a4:a294:1f3e:3361/requiressl/yes/ratebypass/yes/live/1/sgoap/gir%3Dyes%3Bitag%3D140/sgovp/gir%3Dyes%3Bitag%3D299/rqh/1/hls_chunk_host/rr6---sn-ci5gup-jwc6.googlevideo.com/xpc/EgVo2aDSNQ%3D%3D/playlist_duration/30/manifest_duration/30/bui/AYUSA3BB1yQoraoFQHoqibeCsyLZf-BGMRX6KTzID-Idi0pl-2mJEu2F3i867mny6hZM3m3uq7QMLcVi/spc/wH4QqxsjCbcdg65Nd4EZ/vprv/1/playlist_type/DVR/cps/458/initcwndbps/583750/met/1766118215,/mh/rV/mm/44/mn/sn-ci5gup-jwc6/ms/lva/mv/m/mvi/6/pl/44/rms/lva,lva/keepalive/yes/fexp/51552689,51565116,51565681,51580968/mt/1766117792/sparams/expire,ei,ip,id,itag,source,requiressl,ratebypass,live,sgoap,sgovp,rqh,xpc,playlist_duration,manifest_duration,bui,spc,vprv,playlist_type/sig/AJfQdSswRgIhAIZw76Fi_9DB7v5DXaqHfzNxQvUav5atoOrhPyyLkXrkAiEAggXp7rlK99tHreScCLN9_Q0_tF_QWWidtLmoNwdnmN4%3D/lsparams/hls_chunk_host,cps,initcwndbps,met,mh,mm,mn,ms,mv,mvi,pl,rms/lsig/APaTxxMwRgIhAIJdzKicz1JT2chl_Z6eMm5YVekuKIz1N22p0h4LGIqIAiEAgK_n6W75shs1AiBYvXoYbstiFaV_U-un-4I5D-yY7jg%3D/playlist/index.m3u8/sq/186/goap/lmt%3D1/govp/lmt%3D1/dur/5.000/file/seg.ts' for reading
2025-12-19T04:24:00.1337774Z frame=    5 fps=0.2 q=5.0 size=N/A time=00:00:25.00 bitrate=N/A speed=1.18x elapsed=0:00:21.18    
2025-12-19T04:24:00.6395027Z frame=    6 fps=0.3 q=5.0 size=N/A time=00:00:30.00 bitrate=N/A speed=1.38x elapsed=0:00:21.70    
2025-12-19T04:24:01.1641793Z frame=    6 fps=0.3 q=5.0 size=N/A time=00:00:30.00 bitrate=N/A speed=1.35x elapsed=0:00:22.21    
2025-12-19T04:24:01.6804216Z frame=    6 fps=0.3 q=5.0 size=N/A time=00:00:30.00 bitrate=N/A speed=1.32x elapsed=0:00:22.73    
2025-12-19T04:24:02.1974571Z frame=    6 fps=0.3 q=5.0 size=N/A time=00:00:30.00 bitrate=N/A speed=1.29x elapsed=0:00:23.25    
2025-12-19T04:24:02.7068517Z frame=    6 fps=0.3 q=5.0 size=N/A time=00:00:30.00 bitrate=N/A speed=1.26x elapsed=0:00:23.77    
2025-12-19T04:24:03.2209435Z frame=    6 fps=0.2 q=5.0 size=N/A time=00:00:30.00 bitrate=N/A speed=1.24x elapsed=0:00:24.28    
2025-12-19T04:24:03.7315605Z frame=    6 fps=0.2 q=5.0 size=N/A time=00:00:30.00 bitrate=N/A speed=1.21x elapsed=0:00:24.79    
2025-12-19T04:24:04.2506331Z frame=    6 fps=0.2 q=5.0 size=N/A time=00:00:30.00 bitrate=N/A speed=1.19x elapsed=0:00:25.30    
2025-12-19T04:24:04.4552903Z frame=    6 fps=0.2 q=5.0 size=N/A time=00:00:30.00 bitrate=N/A speed=1.16x elapsed=0:00:25.82    
2025-12-19T04:24:04.4558204Z [https @ 0000024edcfd4380] Opening 'https://manifest.googlevideo.com/api/manifest/hls_playlist/expire/1766139813/ei/RdNEaf6cJtWW4-EPrezvmQk/ip/2401:4900:64f2:5a81:94a4:a294:1f3e:3361/id/WhY5UIDpM4c.1/itag/301/source/yt_live_broadcast/requiressl/yes/ratebypass/yes/live/1/sgoap/gir%3Dyes%3Bitag%3D140/sgovp/gir%3Dyes%3Bitag%3D299/rqh/1/hls_chunk_host/rr6---sn-ci5gup-jwc6.googlevideo.com/xpc/EgVo2aDSNQ%3D%3D/playlist_duration/30/manifest_duration/30/bui/AYUSA3BB1yQoraoFQHoqibeCsyLZf-BGMRX6KTzID-Idi0pl-2mJEu2F3i867mny6hZM3m3uq7QMLcVi/spc/wH4QqxsjCbcdg65Nd4EZ/vprv/1/playlist_type/DVR/cps/458/initcwndbps/583750/met/1766118215,/mh/rV/mm/44/mn/sn-ci5gup-jwc6/ms/lva/mv/m/mvi/6/pl/44/rms/lva,lva/dover/11/pacing/0/keepalive/yes/fexp/51552689,51565116,51565681,51580968/mt/1766117792/sparams/expire,ei,ip,id,itag,source,requiressl,ratebypass,live,sgoap,sgovp,rqh,xpc,playlist_duration,manifest_duration,bui,spc,vprv,playlist_type/sig/AJfQdSswRgIhAIZw76Fi_9DB7v5DXaqHfzNxQvUav5atoOrhPyyLkXrkAiEAggXp7rlK99tHreScCLN9_Q0_tF_QWWidtLmoNwdnmN4%3D/lsparams/hls_chunk_host,cps,initcwndbps,met,mh,mm,mn,ms,mv,mvi,pl,rms/lsig/APaTxxMwRgIhAIJdzKicz1JT2chl_Z6eMm5YVekuKIz1N22p0h4LGIqIAiEAgK_n6W75shs1AiBYvXoYbstiFaV_U-un-4I5D-yY7jg%3D/playlist/index.m3u8' for reading
2025-12-19T04:24:04.6827165Z [https @ 0000024eda02a200] Opening 'https://rr6---sn-ci5gup-jwc6.googlevideo.com/videoplayback/id/WhY5UIDpM4c.1/itag/301/source/yt_live_broadcast/expire/1766139813/ei/RdNEaf6cJtWW4-EPrezvmQk/ip/2401:4900:64f2:5a81:94a4:a294:1f3e:3361/requiressl/yes/ratebypass/yes/live/1/sgoap/gir%3Dyes%3Bitag%3D140/sgovp/gir%3Dyes%3Bitag%3D299/rqh/1/hls_chunk_host/rr6---sn-ci5gup-jwc6.googlevideo.com/xpc/EgVo2aDSNQ%3D%3D/playlist_duration/30/manifest_duration/30/bui/AYUSA3BB1yQoraoFQHoqibeCsyLZf-BGMRX6KTzID-Idi0pl-2mJEu2F3i867mny6hZM3m3uq7QMLcVi/spc/wH4QqxsjCbcdg65Nd4EZ/vprv/1/playlist_type/DVR/cps/458/initcwndbps/583750/met/1766118215,/mh/rV/mm/44/mn/sn-ci5gup-jwc6/ms/lva/mv/m/mvi/6/pl/44/rms/lva,lva/keepalive/yes/fexp/51552689,51565116,51565681,51580968/mt/1766117792/sparams/expire,ei,ip,id,itag,source,requiressl,ratebypass,live,sgoap,sgovp,rqh,xpc,playlist_duration,manifest_duration,bui,spc,vprv,playlist_type/sig/AJfQdSswRgIhAIZw76Fi_9DB7v5DXaqHfzNxQvUav5atoOrhPyyLkXrkAiEAggXp7rlK99tHreScCLN9_Q0_tF_QWWidtLmoNwdnmN4%3D/lsparams/hls_chunk_host,cps,initcwndbps,met,mh,mm,mn,ms,mv,mvi,pl,rms/lsig/APaTxxMwRgIhAIJdzKicz1JT2chl_Z6eMm5YVekuKIz1N22p0h4LGIqIAiEAgK_n6W75shs1AiBYvXoYbstiFaV_U-un-4I5D-yY7jg%3D/playlist/index.m3u8/sq/187/goap/lmt%3D1/govp/lmt%3D1/dur/5.000/file/seg.ts' for reading
2025-12-19T04:24:05.2817773Z frame=    6 fps=0.2 q=5.0 size=N/A time=00:00:30.00 bitrate=N/A speed=1.14x elapsed=0:00:26.34    
2025-12-19T04:24:05.7917186Z frame=    6 fps=0.2 q=5.0 size=N/A time=00:00:30.00 bitrate=N/A speed=1.12x elapsed=0:00:26.85    
2025-12-19T04:24:06.3107739Z frame=    7 fps=0.3 q=5.0 size=N/A time=00:00:35.00 bitrate=N/A speed=1.28x elapsed=0:00:27.36    
2025-12-19T04:24:06.8312865Z frame=    7 fps=0.3 q=5.0 size=N/A time=00:00:35.00 bitrate=N/A speed=1.26x elapsed=0:00:27.88    
2025-12-19T04:24:07.3530183Z frame=    7 fps=0.2 q=5.0 size=N/A time=00:00:35.00 bitrate=N/A speed=1.23x elapsed=0:00:28.40    
2025-12-19T04:24:07.8582629Z frame=    7 fps=0.2 q=5.0 size=N/A time=00:00:35.00 bitrate=N/A speed=1.21x elapsed=0:00:28.92    
2025-12-19T04:24:08.3821785Z frame=    7 fps=0.2 q=5.0 size=N/A time=00:00:35.00 bitrate=N/A speed=1.19x elapsed=0:00:29.43    
2025-12-19T04:24:08.8995733Z frame=    7 fps=0.2 q=5.0 size=N/A time=00:00:35.00 bitrate=N/A speed=1.17x elapsed=0:00:29.95    
2025-12-19T04:24:09.4159308Z frame=    7 fps=0.2 q=5.0 size=N/A time=00:00:35.00 bitrate=N/A speed=1.15x elapsed=0:00:30.47    
2025-12-19T04:24:09.6995378Z frame=    7 fps=0.2 q=5.0 size=N/A time=00:00:35.00 bitrate=N/A speed=1.13x elapsed=0:00:30.99    
2025-12-19T04:24:09.7004636Z [https @ 0000024edcfd4380] Opening 'https://manifest.googlevideo.com/api/manifest/hls_playlist/expire/1766139813/ei/RdNEaf6cJtWW4-EPrezvmQk/ip/2401:4900:64f2:5a81:94a4:a294:1f3e:3361/id/WhY5UIDpM4c.1/itag/301/source/yt_live_broadcast/requiressl/yes/ratebypass/yes/live/1/sgoap/gir%3Dyes%3Bitag%3D140/sgovp/gir%3Dyes%3Bitag%3D299/rqh/1/hls_chunk_host/rr6---sn-ci5gup-jwc6.googlevideo.com/xpc/EgVo2aDSNQ%3D%3D/playlist_duration/30/manifest_duration/30/bui/AYUSA3BB1yQoraoFQHoqibeCsyLZf-BGMRX6KTzID-Idi0pl-2mJEu2F3i867mny6hZM3m3uq7QMLcVi/spc/wH4QqxsjCbcdg65Nd4EZ/vprv/1/playlist_type/DVR/cps/458/initcwndbps/583750/met/1766118215,/mh/rV/mm/44/mn/sn-ci5gup-jwc6/ms/lva/mv/m/mvi/6/pl/44/rms/lva,lva/dover/11/pacing/0/keepalive/yes/fexp/51552689,51565116,51565681,51580968/mt/1766117792/sparams/expire,ei,ip,id,itag,source,requiressl,ratebypass,live,sgoap,sgovp,rqh,xpc,playlist_duration,manifest_duration,bui,spc,vprv,playlist_type/sig/AJfQdSswRgIhAIZw76Fi_9DB7v5DXaqHfzNxQvUav5atoOrhPyyLkXrkAiEAggXp7rlK99tHreScCLN9_Q0_tF_QWWidtLmoNwdnmN4%3D/lsparams/hls_chunk_host,cps,initcwndbps,met,mh,mm,mn,ms,mv,mvi,pl,rms/lsig/APaTxxMwRgIhAIJdzKicz1JT2chl_Z6eMm5YVekuKIz1N22p0h4LGIqIAiEAgK_n6W75shs1AiBYvXoYbstiFaV_U-un-4I5D-yY7jg%3D/playlist/index.m3u8' for reading
2025-12-19T04:24:09.9095056Z [https @ 0000024eda02a200] Opening 'https://rr6---sn-ci5gup-jwc6.googlevideo.com/videoplayback/id/WhY5UIDpM4c.1/itag/301/source/yt_live_broadcast/expire/1766139813/ei/RdNEaf6cJtWW4-EPrezvmQk/ip/2401:4900:64f2:5a81:94a4:a294:1f3e:3361/requiressl/yes/ratebypass/yes/live/1/sgoap/gir%3Dyes%3Bitag%3D140/sgovp/gir%3Dyes%3Bitag%3D299/rqh/1/hls_chunk_host/rr6---sn-ci5gup-jwc6.googlevideo.com/xpc/EgVo2aDSNQ%3D%3D/playlist_duration/30/manifest_duration/30/bui/AYUSA3BB1yQoraoFQHoqibeCsyLZf-BGMRX6KTzID-Idi0pl-2mJEu2F3i867mny6hZM3m3uq7QMLcVi/spc/wH4QqxsjCbcdg65Nd4EZ/vprv/1/playlist_type/DVR/cps/458/initcwndbps/583750/met/1766118215,/mh/rV/mm/44/mn/sn-ci5gup-jwc6/ms/lva/mv/m/mvi/6/pl/44/rms/lva,lva/keepalive/yes/fexp/51552689,51565116,51565681,51580968/mt/1766117792/sparams/expire,ei,ip,id,itag,source,requiressl,ratebypass,live,sgoap,sgovp,rqh,xpc,playlist_duration,manifest_duration,bui,spc,vprv,playlist_type/sig/AJfQdSswRgIhAIZw76Fi_9DB7v5DXaqHfzNxQvUav5atoOrhPyyLkXrkAiEAggXp7rlK99tHreScCLN9_Q0_tF_QWWidtLmoNwdnmN4%3D/lsparams/hls_chunk_host,cps,initcwndbps,met,mh,mm,mn,ms,mv,mvi,pl,rms/lsig/APaTxxMwRgIhAIJdzKicz1JT2chl_Z6eMm5YVekuKIz1N22p0h4LGIqIAiEAgK_n6W75shs1AiBYvXoYbstiFaV_U-un-4I5D-yY7jg%3D/playlist/index.m3u8/sq/188/goap/lmt%3D1/govp/lmt%3D1/dur/5.000/file/seg.ts' for reading
2025-12-19T04:24:10.4529614Z frame=    7 fps=0.2 q=5.0 size=N/A time=00:00:35.00 bitrate=N/A speed=1.11x elapsed=0:00:31.49    
2025-12-19T04:24:10.9819060Z frame=    7 fps=0.2 q=5.0 size=N/A time=00:00:35.00 bitrate=N/A speed=1.09x elapsed=0:00:32.02    
2025-12-19T04:24:11.5035992Z frame=    8 fps=0.2 q=5.0 size=N/A time=00:00:40.00 bitrate=N/A speed=1.23x elapsed=0:00:32.55    
2025-12-19T04:24:12.0220160Z frame=    8 fps=0.2 q=5.0 size=N/A time=00:00:40.00 bitrate=N/A speed=1.21x elapsed=0:00:33.07    
2025-12-19T04:24:12.5268384Z frame=    8 fps=0.2 q=5.0 size=N/A time=00:00:40.00 bitrate=N/A speed=1.19x elapsed=0:00:33.59    
2025-12-19T04:24:13.0504397Z frame=    8 fps=0.2 q=5.0 size=N/A time=00:00:40.00 bitrate=N/A speed=1.17x elapsed=0:00:34.10    
2025-12-19T04:24:13.5618181Z frame=    8 fps=0.2 q=5.0 size=N/A time=00:00:40.00 bitrate=N/A speed=1.16x elapsed=0:00:34.62    
2025-12-19T04:24:14.0755020Z frame=    8 fps=0.2 q=5.0 size=N/A time=00:00:40.00 bitrate=N/A speed=1.14x elapsed=0:00:35.13    
2025-12-19T04:24:14.5995875Z frame=    8 fps=0.2 q=5.0 size=N/A time=00:00:40.00 bitrate=N/A speed=1.12x elapsed=0:00:35.65    
2025-12-19T04:24:14.9732477Z frame=    8 fps=0.2 q=5.0 size=N/A time=00:00:40.00 bitrate=N/A speed=1.11x elapsed=0:00:36.17    
2025-12-19T04:24:14.9748258Z [https @ 0000024edcfd4380] Opening 'https://manifest.googlevideo.com/api/manifest/hls_playlist/expire/1766139813/ei/RdNEaf6cJtWW4-EPrezvmQk/ip/2401:4900:64f2:5a81:94a4:a294:1f3e:3361/id/WhY5UIDpM4c.1/itag/301/source/yt_live_broadcast/requiressl/yes/ratebypass/yes/live/1/sgoap/gir%3Dyes%3Bitag%3D140/sgovp/gir%3Dyes%3Bitag%3D299/rqh/1/hls_chunk_host/rr6---sn-ci5gup-jwc6.googlevideo.com/xpc/EgVo2aDSNQ%3D%3D/playlist_duration/30/manifest_duration/30/bui/AYUSA3BB1yQoraoFQHoqibeCsyLZf-BGMRX6KTzID-Idi0pl-2mJEu2F3i867mny6hZM3m3uq7QMLcVi/spc/wH4QqxsjCbcdg65Nd4EZ/vprv/1/playlist_type/DVR/cps/458/initcwndbps/583750/met/1766118215,/mh/rV/mm/44/mn/sn-ci5gup-jwc6/ms/lva/mv/m/mvi/6/pl/44/rms/lva,lva/dover/11/pacing/0/keepalive/yes/fexp/51552689,51565116,51565681,51580968/mt/1766117792/sparams/expire,ei,ip,id,itag,source,requiressl,ratebypass,live,sgoap,sgovp,rqh,xpc,playlist_duration,manifest_duration,bui,spc,vprv,playlist_type/sig/AJfQdSswRgIhAIZw76Fi_9DB7v5DXaqHfzNxQvUav5atoOrhPyyLkXrkAiEAggXp7rlK99tHreScCLN9_Q0_tF_QWWidtLmoNwdnmN4%3D/lsparams/hls_chunk_host,cps,initcwndbps,met,mh,mm,mn,ms,mv,mvi,pl,rms/lsig/APaTxxMwRgIhAIJdzKicz1JT2chl_Z6eMm5YVekuKIz1N22p0h4LGIqIAiEAgK_n6W75shs1AiBYvXoYbstiFaV_U-un-4I5D-yY7jg%3D/playlist/index.m3u8' for reading
2025-12-19T04:24:15.3356367Z frame=    8 fps=0.2 q=5.0 size=N/A time=00:00:40.00 bitrate=N/A speed=1.09x elapsed=0:00:36.69    
2025-12-19T04:24:15.3360891Z [https @ 0000024eda02a200] Opening 'https://rr6---sn-ci5gup-jwc6.googlevideo.com/videoplayback/id/WhY5UIDpM4c.1/itag/301/source/yt_live_broadcast/expire/1766139813/ei/RdNEaf6cJtWW4-EPrezvmQk/ip/2401:4900:64f2:5a81:94a4:a294:1f3e:3361/requiressl/yes/ratebypass/yes/live/1/sgoap/gir%3Dyes%3Bitag%3D140/sgovp/gir%3Dyes%3Bitag%3D299/rqh/1/hls_chunk_host/rr6---sn-ci5gup-jwc6.googlevideo.com/xpc/EgVo2aDSNQ%3D%3D/playlist_duration/30/manifest_duration/30/bui/AYUSA3BB1yQoraoFQHoqibeCsyLZf-BGMRX6KTzID-Idi0pl-2mJEu2F3i867mny6hZM3m3uq7QMLcVi/spc/wH4QqxsjCbcdg65Nd4EZ/vprv/1/playlist_type/DVR/cps/458/initcwndbps/583750/met/1766118215,/mh/rV/mm/44/mn/sn-ci5gup-jwc6/ms/lva/mv/m/mvi/6/pl/44/rms/lva,lva/keepalive/yes/fexp/51552689,51565116,51565681,51580968/mt/1766117792/sparams/expire,ei,ip,id,itag,source,requiressl,ratebypass,live,sgoap,sgovp,rqh,xpc,playlist_duration,manifest_duration,bui,spc,vprv,playlist_type/sig/AJfQdSswRgIhAIZw76Fi_9DB7v5DXaqHfzNxQvUav5atoOrhPyyLkXrkAiEAggXp7rlK99tHreScCLN9_Q0_tF_QWWidtLmoNwdnmN4%3D/lsparams/hls_chunk_host,cps,initcwndbps,met,mh,mm,mn,ms,mv,mvi,pl,rms/lsig/APaTxxMwRgIhAIJdzKicz1JT2chl_Z6eMm5YVekuKIz1N22p0h4LGIqIAiEAgK_n6W75shs1AiBYvXoYbstiFaV_U-un-4I5D-yY7jg%3D/playlist/index.m3u8/sq/189/goap/lmt%3D1/govp/lmt%3D1/dur/5.000/file/seg.ts' for reading
2025-12-19T04:24:16.1478820Z frame=    8 fps=0.2 q=5.0 size=N/A time=00:00:40.00 bitrate=N/A speed=1.08x elapsed=0:00:37.20    
2025-12-19T04:24:16.6629827Z frame=    9 fps=0.2 q=5.0 size=N/A time=00:00:45.00 bitrate=N/A speed=1.19x elapsed=0:00:37.72    
2025-12-19T04:24:17.1685179Z frame=    9 fps=0.2 q=5.0 size=N/A time=00:00:45.00 bitrate=N/A speed=1.18x elapsed=0:00:38.23    
2025-12-19T04:24:17.6926266Z frame=    9 fps=0.2 q=5.0 size=N/A time=00:00:45.00 bitrate=N/A speed=1.16x elapsed=0:00:38.74    
2025-12-19T04:24:18.2041167Z frame=    9 fps=0.2 q=5.0 size=N/A time=00:00:45.00 bitrate=N/A speed=1.15x elapsed=0:00:39.26    
2025-12-19T04:24:18.7171444Z frame=    9 fps=0.2 q=5.0 size=N/A time=00:00:45.00 bitrate=N/A speed=1.13x elapsed=0:00:39.77    
2025-12-19T04:24:19.2335351Z frame=    9 fps=0.2 q=5.0 size=N/A time=00:00:45.00 bitrate=N/A speed=1.12x elapsed=0:00:40.29    
2025-12-19T04:24:19.7531805Z frame=    9 fps=0.2 q=5.0 size=N/A time=00:00:45.00 bitrate=N/A speed= 1.1x elapsed=0:00:40.80    
2025-12-19T04:24:20.2639780Z frame=    9 fps=0.2 q=5.0 size=N/A time=00:00:45.00 bitrate=N/A speed=1.09x elapsed=0:00:41.32    
2025-12-19T04:24:20.3422021Z frame=    9 fps=0.2 q=5.0 size=N/A time=00:00:45.00 bitrate=N/A speed=1.08x elapsed=0:00:41.83    
2025-12-19T04:24:20.3428483Z [https @ 0000024edcfd4380] Opening 'https://manifest.googlevideo.com/api/manifest/hls_playlist/expire/1766139813/ei/RdNEaf6cJtWW4-EPrezvmQk/ip/2401:4900:64f2:5a81:94a4:a294:1f3e:3361/id/WhY5UIDpM4c.1/itag/301/source/yt_live_broadcast/requiressl/yes/ratebypass/yes/live/1/sgoap/gir%3Dyes%3Bitag%3D140/sgovp/gir%3Dyes%3Bitag%3D299/rqh/1/hls_chunk_host/rr6---sn-ci5gup-jwc6.googlevideo.com/xpc/EgVo2aDSNQ%3D%3D/playlist_duration/30/manifest_duration/30/bui/AYUSA3BB1yQoraoFQHoqibeCsyLZf-BGMRX6KTzID-Idi0pl-2mJEu2F3i867mny6hZM3m3uq7QMLcVi/spc/wH4QqxsjCbcdg65Nd4EZ/vprv/1/playlist_type/DVR/cps/458/initcwndbps/583750/met/1766118215,/mh/rV/mm/44/mn/sn-ci5gup-jwc6/ms/lva/mv/m/mvi/6/pl/44/rms/lva,lva/dover/11/pacing/0/keepalive/yes/fexp/51552689,51565116,51565681,51580968/mt/1766117792/sparams/expire,ei,ip,id,itag,source,requiressl,ratebypass,live,sgoap,sgovp,rqh,xpc,playlist_duration,manifest_duration,bui,spc,vprv,playlist_type/sig/AJfQdSswRgIhAIZw76Fi_9DB7v5DXaqHfzNxQvUav5atoOrhPyyLkXrkAiEAggXp7rlK99tHreScCLN9_Q0_tF_QWWidtLmoNwdnmN4%3D/lsparams/hls_chunk_host,cps,initcwndbps,met,mh,mm,mn,ms,mv,mvi,pl,rms/lsig/APaTxxMwRgIhAIJdzKicz1JT2chl_Z6eMm5YVekuKIz1N22p0h4LGIqIAiEAgK_n6W75shs1AiBYvXoYbstiFaV_U-un-4I5D-yY7jg%3D/playlist/index.m3u8' for reading
2025-12-19T04:24:20.5704226Z [https @ 0000024eda02a200] Opening 'https://rr6---sn-ci5gup-jwc6.googlevideo.com/videoplayback/id/WhY5UIDpM4c.1/itag/301/source/yt_live_broadcast/expire/1766139813/ei/RdNEaf6cJtWW4-EPrezvmQk/ip/2401:4900:64f2:5a81:94a4:a294:1f3e:3361/requiressl/yes/ratebypass/yes/live/1/sgoap/gir%3Dyes%3Bitag%3D140/sgovp/gir%3Dyes%3Bitag%3D299/rqh/1/hls_chunk_host/rr6---sn-ci5gup-jwc6.googlevideo.com/xpc/EgVo2aDSNQ%3D%3D/playlist_duration/30/manifest_duration/30/bui/AYUSA3BB1yQoraoFQHoqibeCsyLZf-BGMRX6KTzID-Idi0pl-2mJEu2F3i867mny6hZM3m3uq7QMLcVi/spc/wH4QqxsjCbcdg65Nd4EZ/vprv/1/playlist_type/DVR/cps/458/initcwndbps/583750/met/1766118215,/mh/rV/mm/44/mn/sn-ci5gup-jwc6/ms/lva/mv/m/mvi/6/pl/44/rms/lva,lva/keepalive/yes/fexp/51552689,51565116,51565681,51580968/mt/1766117792/sparams/expire,ei,ip,id,itag,source,requiressl,ratebypass,live,sgoap,sgovp,rqh,xpc,playlist_duration,manifest_duration,bui,spc,vprv,playlist_type/sig/AJfQdSswRgIhAIZw76Fi_9DB7v5DXaqHfzNxQvUav5atoOrhPyyLkXrkAiEAggXp7rlK99tHreScCLN9_Q0_tF_QWWidtLmoNwdnmN4%3D/lsparams/hls_chunk_host,cps,initcwndbps,met,mh,mm,mn,ms,mv,mvi,pl,rms/lsig/APaTxxMwRgIhAIJdzKicz1JT2chl_Z6eMm5YVekuKIz1N22p0h4LGIqIAiEAgK_n6W75shs1AiBYvXoYbstiFaV_U-un-4I5D-yY7jg%3D/playlist/index.m3u8/sq/190/goap/lmt%3D1/govp/lmt%3D1/dur/5.000/file/seg.ts' for reading
2025-12-19T04:24:21.3028447Z frame=    9 fps=0.2 q=5.0 size=N/A time=00:00:45.00 bitrate=N/A speed=1.06x elapsed=0:00:42.36    
2025-12-19T04:24:21.8110178Z frame=   10 fps=0.2 q=5.0 size=N/A time=00:00:50.00 bitrate=N/A speed=1.17x elapsed=0:00:42.87    
2025-12-19T04:24:22.3295582Z frame=   10 fps=0.2 q=5.0 size=N/A time=00:00:50.00 bitrate=N/A speed=1.15x elapsed=0:00:43.38    
2025-12-19T04:24:22.8486435Z frame=   10 fps=0.2 q=5.0 size=N/A time=00:00:50.00 bitrate=N/A speed=1.14x elapsed=0:00:43.90    
2025-12-19T04:24:23.3682900Z frame=   10 fps=0.2 q=5.0 size=N/A time=00:00:50.00 bitrate=N/A speed=1.13x elapsed=0:00:44.42    
2025-12-19T04:24:23.8708962Z frame=   10 fps=0.2 q=5.0 size=N/A time=00:00:50.00 bitrate=N/A speed=1.11x elapsed=0:00:44.94    
2025-12-19T04:24:24.3930034Z frame=   10 fps=0.2 q=5.0 size=N/A time=00:00:50.00 bitrate=N/A speed= 1.1x elapsed=0:00:45.44    
2025-12-19T04:24:24.9087514Z frame=   10 fps=0.2 q=5.0 size=N/A time=00:00:50.00 bitrate=N/A speed=1.09x elapsed=0:00:45.96    
2025-12-19T04:24:25.4197209Z frame=   10 fps=0.2 q=5.0 size=N/A time=00:00:50.00 bitrate=N/A speed=1.08x elapsed=0:00:46.48    
2025-12-19T04:24:25.6622079Z frame=   10 fps=0.2 q=5.0 size=N/A time=00:00:50.00 bitrate=N/A speed=1.06x elapsed=0:00:46.99    
2025-12-19T04:24:25.6636597Z [https @ 0000024edcfd4380] Opening 'https://manifest.googlevideo.com/api/manifest/hls_playlist/expire/1766139813/ei/RdNEaf6cJtWW4-EPrezvmQk/ip/2401:4900:64f2:5a81:94a4:a294:1f3e:3361/id/WhY5UIDpM4c.1/itag/301/source/yt_live_broadcast/requiressl/yes/ratebypass/yes/live/1/sgoap/gir%3Dyes%3Bitag%3D140/sgovp/gir%3Dyes%3Bitag%3D299/rqh/1/hls_chunk_host/rr6---sn-ci5gup-jwc6.googlevideo.com/xpc/EgVo2aDSNQ%3D%3D/playlist_duration/30/manifest_duration/30/bui/AYUSA3BB1yQoraoFQHoqibeCsyLZf-BGMRX6KTzID-Idi0pl-2mJEu2F3i867mny6hZM3m3uq7QMLcVi/spc/wH4QqxsjCbcdg65Nd4EZ/vprv/1/playlist_type/DVR/cps/458/initcwndbps/583750/met/1766118215,/mh/rV/mm/44/mn/sn-ci5gup-jwc6/ms/lva/mv/m/mvi/6/pl/44/rms/lva,lva/dover/11/pacing/0/keepalive/yes/fexp/51552689,51565116,51565681,51580968/mt/1766117792/sparams/expire,ei,ip,id,itag,source,requiressl,ratebypass,live,sgoap,sgovp,rqh,xpc,playlist_duration,manifest_duration,bui,spc,vprv,playlist_type/sig/AJfQdSswRgIhAIZw76Fi_9DB7v5DXaqHfzNxQvUav5atoOrhPyyLkXrkAiEAggXp7rlK99tHreScCLN9_Q0_tF_QWWidtLmoNwdnmN4%3D/lsparams/hls_chunk_host,cps,initcwndbps,met,mh,mm,mn,ms,mv,mvi,pl,rms/lsig/APaTxxMwRgIhAIJdzKicz1JT2chl_Z6eMm5YVekuKIz1N22p0h4LGIqIAiEAgK_n6W75shs1AiBYvXoYbstiFaV_U-un-4I5D-yY7jg%3D/playlist/index.m3u8' for reading
2025-12-19T04:24:26.0399986Z frame=   10 fps=0.2 q=5.0 size=N/A time=00:00:50.00 bitrate=N/A speed=1.05x elapsed=0:00:47.50    
2025-12-19T04:24:26.0404302Z [https @ 0000024eda02a200] Opening 'https://rr6---sn-ci5gup-jwc6.googlevideo.com/videoplayback/id/WhY5UIDpM4c.1/itag/301/source/yt_live_broadcast/expire/1766139813/ei/RdNEaf6cJtWW4-EPrezvmQk/ip/2401:4900:64f2:5a81:94a4:a294:1f3e:3361/requiressl/yes/ratebypass/yes/live/1/sgoap/gir%3Dyes%3Bitag%3D140/sgovp/gir%3Dyes%3Bitag%3D299/rqh/1/hls_chunk_host/rr6---sn-ci5gup-jwc6.googlevideo.com/xpc/EgVo2aDSNQ%3D%3D/playlist_duration/30/manifest_duration/30/bui/AYUSA3BB1yQoraoFQHoqibeCsyLZf-BGMRX6KTzID-Idi0pl-2mJEu2F3i867mny6hZM3m3uq7QMLcVi/spc/wH4QqxsjCbcdg65Nd4EZ/vprv/1/playlist_type/DVR/cps/458/initcwndbps/583750/met/1766118215,/mh/rV/mm/44/mn/sn-ci5gup-jwc6/ms/lva/mv/m/mvi/6/pl/44/rms/lva,lva/keepalive/yes/fexp/51552689,51565116,51565681,51580968/mt/1766117792/sparams/expire,ei,ip,id,itag,source,requiressl,ratebypass,live,sgoap,sgovp,rqh,xpc,playlist_duration,manifest_duration,bui,spc,vprv,playlist_type/sig/AJfQdSswRgIhAIZw76Fi_9DB7v5DXaqHfzNxQvUav5atoOrhPyyLkXrkAiEAggXp7rlK99tHreScCLN9_Q0_tF_QWWidtLmoNwdnmN4%3D/lsparams/hls_chunk_host,cps,initcwndbps,met,mh,mm,mn,ms,mv,mvi,pl,rms/lsig/APaTxxMwRgIhAIJdzKicz1JT2chl_Z6eMm5YVekuKIz1N22p0h4LGIqIAiEAgK_n6W75shs1AiBYvXoYbstiFaV_U-un-4I5D-yY7jg%3D/playlist/index.m3u8/sq/191/goap/lmt%3D1/govp/lmt%3D1/dur/5.000/file/seg.ts' for reading
2025-12-19T04:24:26.9747013Z frame=   10 fps=0.2 q=5.0 size=N/A time=00:00:50.00 bitrate=N/A speed=1.04x elapsed=0:00:48.02    
2025-12-19T04:24:27.4847328Z frame=   11 fps=0.2 q=5.0 size=N/A time=00:00:55.00 bitrate=N/A speed=1.13x elapsed=0:00:48.54    
2025-12-19T04:24:28.0037843Z frame=   11 fps=0.2 q=5.0 size=N/A time=00:00:55.00 bitrate=N/A speed=1.12x elapsed=0:00:49.05    
2025-12-19T04:24:28.5178125Z frame=   11 fps=0.2 q=5.0 size=N/A time=00:00:55.00 bitrate=N/A speed=1.11x elapsed=0:00:49.57    
2025-12-19T04:24:29.0378880Z frame=   11 fps=0.2 q=5.0 size=N/A time=00:00:55.00 bitrate=N/A speed= 1.1x elapsed=0:00:50.09    
2025-12-19T04:24:29.5435839Z frame=   11 fps=0.2 q=5.0 size=N/A time=00:00:55.00 bitrate=N/A speed=1.09x elapsed=0:00:50.60    
2025-12-19T04:24:30.0592133Z frame=   11 fps=0.2 q=5.0 size=N/A time=00:00:55.00 bitrate=N/A speed=1.08x elapsed=0:00:51.11    
2025-12-19T04:24:30.5847502Z frame=   11 fps=0.2 q=5.0 size=N/A time=00:00:55.00 bitrate=N/A speed=1.07x elapsed=0:00:51.63    
2025-12-19T04:24:31.0986498Z frame=   11 fps=0.2 q=5.0 size=N/A time=00:00:55.00 bitrate=N/A speed=1.05x elapsed=0:00:52.15    
2025-12-19T04:24:31.1451935Z frame=   11 fps=0.2 q=5.0 size=N/A time=00:00:55.00 bitrate=N/A speed=1.04x elapsed=0:00:52.67    
2025-12-19T04:24:31.1456001Z [https @ 0000024edcfd4380] Opening 'https://manifest.googlevideo.com/api/manifest/hls_playlist/expire/1766139813/ei/RdNEaf6cJtWW4-EPrezvmQk/ip/2401:4900:64f2:5a81:94a4:a294:1f3e:3361/id/WhY5UIDpM4c.1/itag/301/source/yt_live_broadcast/requiressl/yes/ratebypass/yes/live/1/sgoap/gir%3Dyes%3Bitag%3D140/sgovp/gir%3Dyes%3Bitag%3D299/rqh/1/hls_chunk_host/rr6---sn-ci5gup-jwc6.googlevideo.com/xpc/EgVo2aDSNQ%3D%3D/playlist_duration/30/manifest_duration/30/bui/AYUSA3BB1yQoraoFQHoqibeCsyLZf-BGMRX6KTzID-Idi0pl-2mJEu2F3i867mny6hZM3m3uq7QMLcVi/spc/wH4QqxsjCbcdg65Nd4EZ/vprv/1/playlist_type/DVR/cps/458/initcwndbps/583750/met/1766118215,/mh/rV/mm/44/mn/sn-ci5gup-jwc6/ms/lva/mv/m/mvi/6/pl/44/rms/lva,lva/dover/11/pacing/0/keepalive/yes/fexp/51552689,51565116,51565681,51580968/mt/1766117792/sparams/expire,ei,ip,id,itag,source,requiressl,ratebypass,live,sgoap,sgovp,rqh,xpc,playlist_duration,manifest_duration,bui,spc,vprv,playlist_type/sig/AJfQdSswRgIhAIZw76Fi_9DB7v5DXaqHfzNxQvUav5atoOrhPyyLkXrkAiEAggXp7rlK99tHreScCLN9_Q0_tF_QWWidtLmoNwdnmN4%3D/lsparams/hls_chunk_host,cps,initcwndbps,met,mh,mm,mn,ms,mv,mvi,pl,rms/lsig/APaTxxMwRgIhAIJdzKicz1JT2chl_Z6eMm5YVekuKIz1N22p0h4LGIqIAiEAgK_n6W75shs1AiBYvXoYbstiFaV_U-un-4I5D-yY7jg%3D/playlist/index.m3u8' for reading
2025-12-19T04:24:31.4347263Z [https @ 0000024eda02a200] Opening 'https://rr6---sn-ci5gup-jwc6.googlevideo.com/videoplayback/id/WhY5UIDpM4c.1/itag/301/source/yt_live_broadcast/expire/1766139813/ei/RdNEaf6cJtWW4-EPrezvmQk/ip/2401:4900:64f2:5a81:94a4:a294:1f3e:3361/requiressl/yes/ratebypass/yes/live/1/sgoap/gir%3Dyes%3Bitag%3D140/sgovp/gir%3Dyes%3Bitag%3D299/rqh/1/hls_chunk_host/rr6---sn-ci5gup-jwc6.googlevideo.com/xpc/EgVo2aDSNQ%3D%3D/playlist_duration/30/manifest_duration/30/bui/AYUSA3BB1yQoraoFQHoqibeCsyLZf-BGMRX6KTzID-Idi0pl-2mJEu2F3i867mny6hZM3m3uq7QMLcVi/spc/wH4QqxsjCbcdg65Nd4EZ/vprv/1/playlist_type/DVR/cps/458/initcwndbps/583750/met/1766118215,/mh/rV/mm/44/mn/sn-ci5gup-jwc6/ms/lva/mv/m/mvi/6/pl/44/rms/lva,lva/keepalive/yes/fexp/51552689,51565116,51565681,51580968/mt/1766117792/sparams/expire,ei,ip,id,itag,source,requiressl,ratebypass,live,sgoap,sgovp,rqh,xpc,playlist_duration,manifest_duration,bui,spc,vprv,playlist_type/sig/AJfQdSswRgIhAIZw76Fi_9DB7v5DXaqHfzNxQvUav5atoOrhPyyLkXrkAiEAggXp7rlK99tHreScCLN9_Q0_tF_QWWidtLmoNwdnmN4%3D/lsparams/hls_chunk_host,cps,initcwndbps,met,mh,mm,mn,ms,mv,mvi,pl,rms/lsig/APaTxxMwRgIhAIJdzKicz1JT2chl_Z6eMm5YVekuKIz1N22p0h4LGIqIAiEAgK_n6W75shs1AiBYvXoYbstiFaV_U-un-4I5D-yY7jg%3D/playlist/index.m3u8/sq/192/goap/lmt%3D1/govp/lmt%3D1/dur/5.000/file/seg.ts' for reading
2025-12-19T04:24:32.1188379Z frame=   11 fps=0.2 q=5.0 size=N/A time=00:00:55.00 bitrate=N/A speed=1.03x elapsed=0:00:53.18    
2025-12-19T04:24:32.1189433Z [out#0/image2 @ 0000024eda4c1b80] video:191KiB audio:0KiB subtitle:0KiB other streams:0KiB global headers:0KiB muxing overhead: unknown
2025-12-19T04:24:32.1190177Z frame=   12 fps=0.2 q=5.0 Lsize=N/A time=00:01:00.00 bitrate=N/A speed=1.12x elapsed=0:00:53.69    
